<svg xmlns="http://www.w3.org/2000/svg" viewBox="0 0 258 86">
  <path d="M 2,4 L 73,4 L 73,11 L 75,15 L 83,22 L 93,26 L 101,28 L 110,28 L 111,29 L 113,28 L 114,18 L 117,8 L 119,9 L 124,16 L 134,16 L 140,8 L 142,12 L 144,28 L 147,29 L 148,28 L 161,27 L 176,21 L 183,14 L 185,9 L 184,5 L 185,4 L 255,4 L 237,12 L 230,17 L 222,25 L 215,37 L 214,50 L 210,50 L 209,49 L 190,49 L 187,50 L 181,53 L 175,59 L 172,66 L 168,65 L 155,65 L 151,66 L 140,72 L 129,84 L 116,71 L 109,67 L 102,65 L 85,66 L 83,60 L 73,51 L 67,49 L 43,50 L 43,40 L 41,34 L 36,26 L 27,17 L 20,12 L 2,4 Z" fill="#0d0d12" />
</svg>